<?xml version="1.0" encoding="UTF-8" standalone="no"?>
<!DOCTYPE svg PUBLIC "-//W3C//DTD SVG 1.1//EN" "http://www.w3.org/Graphics/SVG/1.1/DTD/svg11.dtd">
<!-- Generated by Microsoft Visio, SVG Export ovdk_architecture_overview.svg Page-1 -->
<svg xmlns="http://www.w3.org/2000/svg" xmlns:xlink="http://www.w3.org/1999/xlink" xmlns:ev="http://www.w3.org/2001/xml-events"
		width="10in" height="10in" viewBox="0 0 600 600" xml:space="preserve" color-interpolation-filters="sRGB"
		class="st16">
	<title>Intel DPDK vSwitch Architecture</title>

	<style type="text/css">
	<![CDATA[
		.st1 {fill:none;stroke:#000000;stroke-width:0.25}
		.st2 {fill:#000000;font-family:Verdana;font-size:0.75em}
		.st3 {fill:#70ad47;stroke:none;stroke-width:0.25}
		.st4 {fill:#feffff;font-family:Verdana;font-size:0.75em}
		.st5 {stroke:#000000;stroke-dasharray:7,5;stroke-linecap:round;stroke-linejoin:round;stroke-width:1}
		.st6 {fill:none;stroke:none;stroke-width:0.25}
		.st7 {fill:#2e75b5;stroke:none;stroke-width:0.25}
		.st8 {fill:#ffffff;stroke:#000000;stroke-width:0.25}
		.st9 {font-size:1em}
		.st10 {visibility:visible}
		.st11 {fill:#5b9bd5;fill-opacity:0.22;filter:url(#filter_2);stroke:#5b9bd5;stroke-opacity:0.22}
		.st12 {fill:#5b9bd5;stroke:#ffffff;stroke-width:0.25}
		.st13 {marker-end:url(#mrkr2-67);marker-start:url(#mrkr2-65);stroke:#c55a11;stroke-linecap:round;stroke-linejoin:round;stroke-width:1.75}
		.st14 {fill:#c55a11;fill-opacity:1;stroke:#c55a11;stroke-opacity:1;stroke-width:0.40983606557377}
		.st15 {fill:#ea4242;stroke:none;stroke-width:0.25}
		.st16 {fill:none;fill-rule:evenodd;font-size:12px;overflow:visible;stroke-linecap:square;stroke-miterlimit:3}
	]]>
	</style>

	<defs id="Markers">
		<g id="lend2">
			<path d="M 1 1 L 0 0 L 1 -1 L 1 1 " style="stroke:none"/>
		</g>
		<marker id="mrkr2-65" class="st14" refX="2.2342857142857" orient="auto" markerUnits="strokeWidth" overflow="visible">
			<use xlink:href="#lend2" transform="scale(2.44) "/>
		</marker>
		<marker id="mrkr2-67" class="st14" refX="-2.44" orient="auto" markerUnits="strokeWidth" overflow="visible">
			<use xlink:href="#lend2" transform="scale(-2.44,-2.44) "/>
		</marker>
	</defs>
	<defs id="Filters">
		<filter id="filter_2">
			<feGaussianBlur stdDeviation="2"/>
		</filter>
	</defs>
	<g>
		<title>Page-1</title>
		<g id="shape137-1" transform="translate(77.9528,-42.5197)">
			<title>Rectangle.137</title>
			<desc>Legend</desc>
			<rect x="0" y="507.402" width="141.732" height="87.874" class="st1"/>
			<text x="4" y="519.5" class="st2">Legend</text>		</g>
		<g id="shape1-4" transform="translate(240.945,-368.504)">
			<title>Rectangle</title>
			<desc>Guest</desc>
			<rect x="0" y="425.197" width="113.386" height="170.079" class="st3"/>
			<text x="43.56" y="437.3" class="st4">Guest</text>		</g>
		<g id="shape6-7" transform="translate(375.591,-368.504)">
			<title>Rectangle.6</title>
			<desc>Guest</desc>
			<rect x="0" y="425.197" width="113.386" height="170.079" class="st3"/>
			<text x="43.56" y="437.3" class="st4">Guest</text>		</g>
		<g id="shape10-10" transform="translate(226.772,-481.89)">
			<title>Sheet.10</title>
			<path d="M0 595.28 L276.38 595.28" class="st5"/>
		</g>
		<g id="shape11-13" transform="translate(510.236,-496.693)">
			<title>Sheet.11</title>
			<desc>User</desc>
			<rect x="0" y="575.276" width="53.1654" height="20" class="st6"/>
			<text x="4" y="587.98" class="st2">User</text>		</g>
		<g id="shape13-16" transform="translate(510.236,-411.654)">
			<title>Sheet.13</title>
			<desc>Kernel</desc>
			<rect x="0" y="575.276" width="53.1654" height="20" class="st6"/>
			<text x="4" y="587.98" class="st2">Kernel</text>		</g>
		<g id="shape15-19" transform="translate(240.945,-290.551)">
			<title>Rectangle.15</title>
			<desc>QEMU</desc>
			<rect x="0" y="538.583" width="113.386" height="56.6929" class="st7"/>
			<text x="43.22" y="588.58" class="st4">QEMU</text>		</g>
		<g id="shape16-22" transform="translate(375.591,-290.551)">
			<title>Rectangle.16</title>
			<desc>QEMU</desc>
			<rect x="0" y="538.583" width="113.386" height="56.6929" class="st7"/>
			<text x="43.22" y="588.58" class="st4">QEMU</text>		</g>
		<g id="shape20-25" transform="translate(389.764,-464.173)">
			<title>Rectangle.20</title>
			<desc>Linux Socket</desc>
			<rect x="0" y="559.843" width="42.5197" height="35.4331" class="st8"/>
			<text x="9.16" y="574.86" class="st2">Linux <tspan x="5.99" dy="1.2em" class="st9">Socket</tspan></text>		</g>
		<g id="shape21-29" transform="translate(240.945,-538.583)">
			<title>Sheet.21</title>
			<desc>IVSHM</desc>
			<rect x="0" y="562.677" width="113.386" height="32.5984" class="st6"/>
			<text x="41.47" y="581.68" class="st2">IVSHM</text>		</g>
		<g id="shape22-32" transform="translate(375.591,-538.583)">
			<title>Sheet.22</title>
			<desc>Userspace vHost</desc>
			<rect x="0" y="562.677" width="113.386" height="32.5984" class="st6"/>
			<text x="19.1" y="581.68" class="st2">Userspace vHost</text>		</g>
		<g id="shape43-35" transform="translate(255.118,-396.85)">
			<title>Rectangle.43</title>
			<desc>IVSHM</desc>
			<g id="shadow43-36" transform="matrix(1,0,0,1,0.345598,1.97279)" class="st10">
				<rect x="0" y="545.669" width="85.0394" height="49.6063" class="st11"/>
			</g>
			<rect x="0" y="545.669" width="85.0394" height="49.6063" class="st12"/>
			<text x="27.3" y="588.58" class="st4">IVSHM</text>		</g>
		<g id="shape44-41" transform="translate(262.205,-425.197)">
			<title>Rectangle.44</title>
			<desc>BAR2</desc>
			<g id="shadow44-42" transform="matrix(1,0,0,1,0.345598,1.97279)" class="st10">
				<rect x="0" y="574.016" width="70.8661" height="21.2598" class="st11"/>
			</g>
			<rect x="0" y="574.016" width="70.8661" height="21.2598" class="st12"/>
			<text x="23.28" y="587.35" class="st4">BAR2</text>		</g>
		<g id="shape45-47" transform="translate(255.118,-315.354)">
			<title>Rectangle.45</title>
			<desc>IVSHM</desc>
			<g id="shadow45-48" transform="matrix(1,0,0,1,0.345598,1.97279)" class="st10">
				<rect x="0" y="574.016" width="85.0394" height="21.2598" class="st11"/>
			</g>
			<rect x="0" y="574.016" width="85.0394" height="21.2598" class="st12"/>
			<text x="27.3" y="587.35" class="st4">IVSHM</text>		</g>
		<g id="shape46-53" transform="translate(389.764,-315.354)">
			<title>Rectangle.46</title>
			<desc>IVSHM</desc>
			<g id="shadow46-54" transform="matrix(1,0,0,1,0.345598,1.97279)" class="st10">
				<rect x="0" y="574.016" width="85.0394" height="21.2598" class="st11"/>
			</g>
			<rect x="0" y="574.016" width="85.0394" height="21.2598" class="st12"/>
			<text x="27.3" y="587.35" class="st4">IVSHM</text>		</g>
		<g id="shape47-59" transform="translate(290.551,-368.504)">
			<title>Dynamic connector</title>
			<path d="M7.09 599.19 L7.09 599.55 L7.09 612.27" class="st13"/>
		</g>
		<g id="shape48-68" transform="translate(425.197,-368.504)">
			<title>Dynamic connector.48</title>
			<path d="M7.09 599.19 L7.09 599.55 L7.09 612.27" class="st13"/>
		</g>
		<g id="shape92-75" transform="translate(240.945,-141.732)">
			<title>Rectangle.92</title>
			<desc>Intel® DPDK vSwitch Forwarding Application (BSD)</desc>
			<rect x="0" y="467.717" width="248.031" height="127.559" class="st7"/>
			<text x="4" y="566.98" class="st4">Intel® DPDK vSwitch <tspan x="4" dy="1.2em" class="st9">Forwarding Application </tspan><tspan
						x="4" dy="1.2em" class="st9">(</tspan>BSD)</text>		</g>
		<g id="shape93-80" transform="translate(77.9528,-141.732)">
			<title>Rectangle.93</title>
			<desc>Open vSwitch Daemon (Apache 2.0)</desc>
			<rect x="0" y="467.717" width="141.732" height="127.559" class="st15"/>
			<text x="34.8" y="577.78" class="st4">Open vSwitch Daemon <tspan x="78.77" dy="1.2em" class="st9">(</tspan>Apache 2.0)</text>		</g>
		<g id="shape94-84" transform="translate(271.055,-233.858)">
			<title>Rectangle.94</title>
			<desc>vEth Port</desc>
			<g id="shadow94-85" transform="matrix(1,0,0,1,0.345598,1.97279)" class="st10">
				<rect x="0" y="574.016" width="53.1654" height="21.2598" class="st11"/>
			</g>
			<rect x="0" y="574.016" width="53.1654" height="21.2598" class="st12"/>
			<text x="5.73" y="587.35" class="st4">vEth Port</text>		</g>
		<g id="shape95-90" transform="translate(92.126,-184.252)">
			<title>Rectangle.95</title>
			<desc>Intel® DPDK Control Interfaces (Apache 2.0)</desc>
			<g id="shadow95-91" transform="matrix(1,0,0,1,0.345598,1.97279)" class="st10">
				<rect x="0" y="524.409" width="113.386" height="70.8661" class="st11"/>
			</g>
			<rect x="0" y="524.409" width="113.386" height="70.8661" class="st12"/>
			<text x="9.45" y="551.74" class="st4">Intel® DPDK Control <tspan x="33.92" dy="1.2em" class="st9">Interfaces </tspan><tspan
						x="27.21" dy="1.2em" class="st9">(</tspan>Apache 2.0)</text>		</g>
		<g id="shape97-98" transform="translate(405.701,-233.858)">
			<title>Rectangle.97</title>
			<desc>vEth Port</desc>
			<g id="shadow97-99" transform="matrix(1,0,0,1,0.345598,1.97279)" class="st10">
				<rect x="0" y="574.016" width="53.1654" height="21.2598" class="st11"/>
			</g>
			<rect x="0" y="574.016" width="53.1654" height="21.2598" class="st12"/>
			<text x="5.73" y="587.35" class="st4">vEth Port</text>		</g>
		<g id="shape102-104" transform="translate(389.764,-396.85)">
			<title>Rectangle.102</title>
			<desc>VirtIO</desc>
			<g id="shadow102-105" transform="matrix(1,0,0,1,0.345598,1.97279)" class="st10">
				<rect x="0" y="545.669" width="42.5197" height="49.6063" class="st11"/>
			</g>
			<rect x="0" y="545.669" width="42.5197" height="49.6063" class="st12"/>
			<text x="7.82" y="573.17" class="st4">VirtIO</text>		</g>
		<g id="shape103-110" transform="translate(439.37,-496.063)">
			<title>Rectangle.103</title>
			<desc>PMD</desc>
			<g id="shadow103-111" transform="matrix(1,0,0,1,0.345598,1.97279)" class="st10">
				<rect x="0" y="574.016" width="42.5197" height="21.2598" class="st11"/>
			</g>
			<rect x="0" y="574.016" width="42.5197" height="21.2598" class="st12"/>
			<text x="11.29" y="587.35" class="st4">PMD</text>		</g>
		<g id="shape104-116" transform="translate(290.551,-290.551)">
			<title>Dynamic connector.104</title>
			<path d="M7.09 599.19 L7.09 599.55 L7.09 626.44" class="st13"/>
		</g>
		<g id="shape105-123" transform="translate(425.197,-290.551)">
			<title>Dynamic connector.105</title>
			<path d="M7.09 599.19 L7.09 599.55 L7.09 626.44" class="st13"/>
		</g>
		<g id="shape106-130" transform="translate(240.945,-198.425)">
			<title>Dynamic connector.106</title>
			<path d="M-3.91 588.19 L-4.27 588.19 L-16.99 588.19" class="st13"/>
		</g>
		<g id="shape109-137" transform="translate(405.701,-155.906)">
			<title>Rectangle.109</title>
			<desc>Phy Port</desc>
			<g id="shadow109-138" transform="matrix(1,0,0,1,0.345598,1.97279)" class="st10">
				<rect x="0" y="574.016" width="53.1654" height="21.2598" class="st11"/>
			</g>
			<rect x="0" y="574.016" width="53.1654" height="21.2598" class="st12"/>
			<text x="7.64" y="587.35" class="st4">Phy Port</text>		</g>
		<g id="shape110-143" transform="translate(240.945,-100.472)">
			<title>Rectangle.110</title>
			<desc>Intel® DPDK PMD Drivers</desc>
			<rect x="0" y="575.276" width="248.031" height="20" class="st7"/>
			<text x="65.37" y="588.58" class="st4">Intel® DPDK PMD Drivers</text>		</g>
		<g id="shape111-146" transform="translate(375.591,-59.2126)">
			<title>Rectangle.111</title>
			<desc>Physical NIC(s)</desc>
			<rect x="0" y="575.276" width="113.386" height="20" class="st7"/>
			<text x="22.19" y="588.58" class="st4">Physical NIC(s)</text>		</g>
		<g id="shape122-149" transform="translate(226.772,-89.2913)">
			<title>Sheet.122</title>
			<path d="M0 595.28 L276.38 595.28" class="st5"/>
		</g>
		<g id="shape123-152" transform="translate(510.236,-59.2126)">
			<title>Sheet.123</title>
			<desc>Kernel</desc>
			<rect x="0" y="575.276" width="53.1654" height="20" class="st6"/>
			<text x="4" y="587.98" class="st2">Kernel</text>		</g>
		<g id="shape124-155" transform="translate(510.236,-202.598)">
			<title>Sheet.124</title>
			<desc>User</desc>
			<rect x="0" y="575.276" width="53.1654" height="20" class="st6"/>
			<text x="4" y="587.98" class="st2">User</text>		</g>
		<g id="shape126-158" transform="translate(425.197,-155.906)">
			<title>Dynamic connector.126</title>
			<path d="M7.09 599.19 L7.09 599.55 L7.09 667.7" class="st13"/>
		</g>
		<g id="shape127-165" transform="translate(270.709,-191.339)">
			<title>Rectangle.127</title>
			<desc>Packet Forwarding</desc>
			<g id="shadow127-166" transform="matrix(1,0,0,1,0.345598,1.97279)" class="st10">
				<rect x="0" y="566.929" width="188.157" height="28.3465" class="st11"/>
			</g>
			<rect x="0" y="566.929" width="188.157" height="28.3465" class="st12"/>
			<text x="52.39" y="583.8" class="st4">Packet Forwarding</text>		</g>
		<g id="shape128-171" transform="translate(85.0394,-92.126)">
			<title>Rectangle.128</title>
			<rect x="0" y="581.102" width="14.1732" height="14.1732" class="st15"/>
		</g>
		<g id="shape129-173" transform="translate(99.2126,-92.126)">
			<title>Sheet.129</title>
			<desc>Open vSwitch Code</desc>
			<rect x="0" y="581.102" width="120.472" height="14.1732" class="st6"/>
			<text x="4" y="590.89" class="st2">Open vSwitch Code</text>		</g>
		<g id="shape131-176" transform="translate(85.0394,-70.8661)">
			<title>Rectangle.131</title>
			<rect x="0" y="581.102" width="14.1732" height="14.1732" class="st3"/>
		</g>
		<g id="shape133-178" transform="translate(85.0394,-49.6063)">
			<title>Rectangle.133</title>
			<rect x="0" y="581.102" width="14.1732" height="14.1732" class="st7"/>
		</g>
		<g id="shape134-180" transform="translate(99.2126,-49.6063)">
			<title>Sheet.134</title>
			<desc>Intel® modifications</desc>
			<rect x="0" y="581.102" width="120.472" height="14.1732" class="st6"/>
			<text x="4" y="590.89" class="st2">Intel® modifications</text>		</g>
		<g id="shape136-183" transform="translate(99.2126,-70.8661)">
			<title>Sheet.136</title>
			<desc>QEMU code</desc>
			<rect x="0" y="581.102" width="120.472" height="14.1732" class="st6"/>
			<text x="4" y="590.89" class="st2">QEMU code</text>		</g>
	</g>
</svg>
